<svg width="294" height="57" viewBox="0 0 294 57" fill="none" xmlns="http://www.w3.org/2000/svg">
<path d="M0 42C0 35.0964 5.63824 29.5 12.5934 29.5H120.392C127.348 29.5 132.986 35.0964 132.986 42V43C132.986 49.9036 127.348 55.5 120.392 55.5H12.5934C5.63824 55.5 0 49.9036 0 43V42Z" fill="url(#paint0_linear_312_718)"/>
<path d="M5.75063 23.3975C4.02416 23.3975 2.72487 22.9117 1.85273 21.94C0.998401 20.9683 0.571234 19.4313 0.571234 17.329V4.6355H2.97405V17.117C2.97405 18.5127 3.17873 19.5638 3.5881 20.2705C3.99747 20.9595 4.73611 21.304 5.80402 21.304C6.90754 21.304 7.65508 20.9507 8.04665 20.244C8.45602 19.5197 8.6607 18.4773 8.6607 17.117V4.6355H11.0635V17.329C11.0635 19.396 10.6185 20.9242 9.72862 21.9135C8.83869 22.9028 7.51269 23.3975 5.75063 23.3975Z" fill="#292929"/>
<path d="M21.2842 11.1545C20.7147 10.9072 20.0739 10.7835 19.362 10.7835C18.7034 10.7835 18.0894 10.8983 17.5198 11.128V23H15.2238V9.697C15.74 9.44967 16.3273 9.2465 16.9859 9.0875C17.6622 8.91083 18.4008 8.8225 19.2018 8.8225C19.629 8.8225 20.0561 8.849 20.4833 8.902C20.9104 8.955 21.3109 9.05217 21.6847 9.1935L21.2842 11.1545Z" fill="#292929"/>
<path d="M27.615 23.265C26.2979 23.2297 25.3545 22.9117 24.785 22.311C24.2154 21.6927 23.9306 20.721 23.9306 19.396V2.8335L26.2267 2.436V19.449C26.2267 20.0673 26.3513 20.5178 26.6004 20.8005C26.8496 21.0655 27.2857 21.251 27.9086 21.357L27.615 23.265Z" fill="#292929"/>
<path d="M30.6896 9.379C31.1524 9.18467 31.6418 9.0345 32.158 8.9285C32.6741 8.80483 33.2348 8.743 33.84 8.743C35.0859 8.743 36.1004 9.13167 36.8835 9.909C37.6667 10.6687 38.0582 11.8612 38.0582 13.4865V22.7085C37.4175 22.8852 36.7589 23.0265 36.0826 23.1325C35.424 23.2385 34.7744 23.2915 34.1336 23.2915C33.4929 23.2915 32.8877 23.212 32.3182 23.053C31.7664 22.894 31.277 22.6378 30.8498 22.2845C30.4404 21.9312 30.1111 21.4895 29.862 20.9595C29.6128 20.4118 29.4882 19.7493 29.4882 18.972C29.4882 18.2477 29.595 17.6205 29.8086 17.0905C30.04 16.5428 30.3514 16.0923 30.743 15.739C31.1346 15.368 31.5973 15.0942 32.1313 14.9175C32.6652 14.7232 33.2437 14.626 33.8666 14.626C34.454 14.626 35.1037 14.6967 35.8156 14.838V13.566C35.8156 12.5413 35.6109 11.8258 35.2015 11.4195C34.81 11.0132 34.2404 10.81 33.4929 10.81C33.0835 10.81 32.6919 10.8542 32.3182 10.9425C31.9622 11.0132 31.5795 11.1368 31.1702 11.3135L30.6896 9.379ZM31.7842 18.9455C31.7842 19.7582 31.9978 20.3588 32.425 20.7475C32.8521 21.1362 33.4573 21.3305 34.2404 21.3305C34.721 21.3305 35.246 21.2687 35.8156 21.145V16.7195C35.2816 16.5782 34.7566 16.5075 34.2404 16.5075C33.9022 16.5075 33.5819 16.5517 33.2793 16.64C32.9767 16.7107 32.7097 16.8432 32.4784 17.0375C32.2648 17.2142 32.0957 17.4615 31.9711 17.7795C31.8465 18.0798 31.7842 18.4685 31.7842 18.9455Z" fill="#292929"/>
<path d="M50.7289 22.6025C50.4975 22.6908 50.2127 22.7792 49.8745 22.8675C49.5542 22.9382 49.2071 23 48.8333 23.053C48.4774 23.1237 48.1125 23.1767 47.7387 23.212C47.3827 23.265 47.0535 23.2915 46.7509 23.2915C46.0211 23.2915 45.3537 23.2032 44.7486 23.0265C44.1434 22.8675 43.6272 22.576 43.2001 22.152C42.7729 21.728 42.4436 21.1538 42.2122 20.4295C41.9809 19.6875 41.8652 18.76 41.8652 17.647V9.0875H44.1612V17.5675C44.1612 18.9278 44.3659 19.8907 44.7752 20.456C45.2024 21.0037 45.8432 21.2775 46.6975 21.2775C46.9823 21.2775 47.2671 21.2687 47.5518 21.251C47.8366 21.2157 48.1303 21.1538 48.4329 21.0655V9.0875H50.7289V22.6025Z" fill="#292929"/>
<path d="M57.1489 21.145C57.3981 21.2157 57.6384 21.2687 57.8697 21.304C58.1011 21.3217 58.3147 21.3305 58.5105 21.3305C59.5428 21.3305 60.3081 20.9242 60.8065 20.1115C61.3227 19.2812 61.5807 17.912 61.5807 16.004C61.5807 15.0147 61.5185 14.1843 61.3939 13.513C61.2693 12.8417 61.0824 12.3028 60.8332 11.8965C60.6018 11.4902 60.317 11.1987 59.9789 11.022C59.6407 10.8453 59.2491 10.757 58.8042 10.757C58.2168 10.757 57.6651 10.8983 57.1489 11.181V21.145ZM57.1489 9.1935C57.4337 9.05217 57.7184 8.94617 58.0032 8.8755C58.3058 8.78717 58.6618 8.743 59.0711 8.743C59.9433 8.743 60.6908 8.91967 61.3138 9.273C61.9367 9.60867 62.444 10.0945 62.8355 10.7305C63.2271 11.3488 63.5119 12.1085 63.6899 13.0095C63.8857 13.8928 63.9836 14.891 63.9836 16.004C63.9836 18.4597 63.5386 20.297 62.6487 21.516C61.7765 22.735 60.3971 23.3445 58.5105 23.3445C57.8519 23.3445 57.2023 23.2738 56.5615 23.1325C55.9208 23.0088 55.3512 22.841 54.8529 22.629V2.8335L57.1489 2.436V9.1935Z" fill="#292929"/>
<path d="M79.4896 13.6455C79.4006 14.7585 79.2315 15.792 78.9824 16.746C78.7332 17.6823 78.4128 18.5303 78.0212 19.29C78.4306 19.8907 78.8044 20.5178 79.1425 21.1715C79.4807 21.8075 79.7655 22.417 79.9969 23H77.6741C77.4428 22.4347 77.1402 21.8163 76.7664 21.145C76.1969 21.8163 75.565 22.3375 74.8709 22.7085C74.1767 23.0618 73.4737 23.2385 72.7617 23.2385C71.8718 23.2385 71.1065 23.0972 70.4657 22.8145C69.8428 22.5318 69.3266 22.1697 68.9172 21.728C68.5257 21.2687 68.232 20.7563 68.0362 20.191C67.8582 19.6257 67.7692 19.0692 67.7692 18.5215C67.7692 17.8325 67.8493 17.2142 68.0095 16.6665C68.1875 16.1012 68.41 15.5977 68.677 15.156C68.9617 14.7143 69.2821 14.308 69.6381 13.937C70.0119 13.566 70.4034 13.2215 70.8128 12.9035C70.35 12.2322 69.9407 11.5255 69.5847 10.7835C69.2465 10.0238 69.0774 9.20233 69.0774 8.319C69.0774 7.08233 69.4245 6.093 70.1187 5.351C70.8128 4.59133 71.7472 4.2115 72.9219 4.2115C73.5627 4.2115 74.1144 4.3175 74.5772 4.5295C75.04 4.72383 75.4137 4.99767 75.6985 5.351C76.0011 5.70433 76.2147 6.11067 76.3393 6.57C76.4817 7.02933 76.5528 7.51517 76.5528 8.0275C76.5528 8.62817 76.4639 9.17583 76.2859 9.6705C76.1257 10.1475 75.9032 10.5892 75.6184 10.9955C75.3514 11.4018 75.0311 11.7728 74.6573 12.1085C74.3013 12.4442 73.9365 12.7622 73.5627 13.0625L76.7397 17.5145C76.9355 16.9492 77.1046 16.322 77.247 15.633C77.3894 14.944 77.4962 14.1932 77.5674 13.3805L79.4896 13.6455ZM72.8418 21.304C73.358 21.304 73.8564 21.1627 74.3369 20.88C74.8353 20.5797 75.2891 20.138 75.6985 19.555L71.9074 14.3875C71.3735 14.8645 70.9374 15.4122 70.5992 16.0305C70.261 16.6488 70.0919 17.4173 70.0919 18.336C70.0919 19.184 70.3233 19.8907 70.7861 20.456C71.2489 21.0213 71.9341 21.304 72.8418 21.304ZM71.1599 8.2925C71.1599 8.89317 71.2845 9.4585 71.5336 9.9885C71.8006 10.5008 72.121 11.022 72.4948 11.552C73.0465 11.0927 73.5093 10.5892 73.883 10.0415C74.2746 9.49383 74.4704 8.8225 74.4704 8.0275C74.4704 7.35617 74.3191 6.85267 74.0165 6.517C73.7318 6.18133 73.3491 6.0135 72.8685 6.0135C72.299 6.0135 71.8718 6.21667 71.587 6.623C71.3023 7.01167 71.1599 7.56817 71.1599 8.2925Z" fill="#137AA2"/>
<path d="M83.8078 4.9005C85.0537 4.60017 86.2551 4.45 87.412 4.45C88.3375 4.45 89.1741 4.556 89.9216 4.768C90.6692 4.98 91.3099 5.31567 91.8439 5.775C92.3778 6.23433 92.7872 6.82617 93.072 7.5505C93.3745 8.27483 93.5258 9.14933 93.5258 10.174C93.5258 11.446 93.2766 12.4795 92.7783 13.2745C92.2977 14.0518 91.6392 14.6437 90.8026 15.05C91.0162 15.4033 91.2832 15.8892 91.6036 16.5075C91.9417 17.1082 92.2799 17.7795 92.6181 18.5215C92.9741 19.2458 93.3122 19.9967 93.6326 20.774C93.9708 21.5513 94.2556 22.2933 94.487 23H92.0841C91.8884 22.47 91.6392 21.8693 91.3366 21.198C91.0518 20.5267 90.7493 19.8642 90.4289 19.2105C90.1085 18.5392 89.7881 17.9032 89.4678 17.3025C89.1474 16.6842 88.8626 16.163 88.6134 15.739C88.3286 15.7743 88.035 15.8008 87.7324 15.8185C87.4298 15.8362 87.1272 15.845 86.8247 15.845H86.1572V23H83.8078V4.9005ZM86.1572 13.884H87.1717C88.3998 13.884 89.3432 13.6102 90.0017 13.0625C90.6603 12.4972 90.9895 11.5343 90.9895 10.174C90.9895 9.485 90.9005 8.91083 90.7225 8.4515C90.5624 7.9745 90.3221 7.6035 90.0017 7.3385C89.6991 7.05583 89.3254 6.85267 88.8804 6.729C88.4532 6.60533 87.9727 6.5435 87.4387 6.5435C86.9759 6.5435 86.5488 6.57 86.1572 6.623V13.884Z" fill="#292929"/>
<path d="M98.4153 16.7195C98.4331 17.3908 98.4954 18.0092 98.6022 18.5745C98.709 19.1222 98.8781 19.608 99.1095 20.032C99.3586 20.4383 99.679 20.7563 100.071 20.986C100.48 21.2157 100.996 21.3305 101.619 21.3305C102.135 21.3305 102.607 21.2598 103.034 21.1185C103.479 20.9595 103.799 20.827 103.995 20.721L104.422 22.5495C104.191 22.7085 103.799 22.8763 103.248 23.053C102.714 23.2473 102.073 23.3445 101.325 23.3445C100.346 23.3445 99.5188 23.1678 98.8425 22.8145C98.1839 22.4612 97.6411 21.9665 97.2139 21.3305C96.8045 20.6945 96.5108 19.9348 96.3329 19.0515C96.1549 18.1682 96.0659 17.1965 96.0659 16.1365C96.0659 13.5748 96.4931 11.7022 97.3474 10.5185C98.2017 9.33483 99.3319 8.743 100.738 8.743C102.322 8.743 103.443 9.33483 104.102 10.5185C104.761 11.7022 105.09 13.3628 105.09 15.5005C105.09 15.6948 105.09 15.898 105.09 16.11C105.09 16.3043 105.081 16.5075 105.063 16.7195H98.4153ZM100.738 10.6775C99.9727 10.6775 99.412 11.0573 99.0561 11.817C98.7179 12.5767 98.5132 13.5925 98.442 14.8645H102.687C102.687 13.5748 102.553 12.559 102.286 11.817C102.02 11.0573 101.503 10.6775 100.738 10.6775Z" fill="#292929"/>
<path d="M110.764 23H108.468V9.0875H110.764V23ZM109.616 6.623C109.207 6.623 108.851 6.4905 108.548 6.2255C108.264 5.94283 108.121 5.57183 108.121 5.1125C108.121 4.65317 108.264 4.291 108.548 4.026C108.851 3.74333 109.207 3.602 109.616 3.602C110.026 3.602 110.373 3.74333 110.658 4.026C110.96 4.291 111.111 4.65317 111.111 5.1125C111.111 5.57183 110.96 5.94283 110.658 6.2255C110.373 6.4905 110.026 6.623 109.616 6.623Z" fill="#292929"/>
<path d="M116.883 21.3835C117.56 21.3835 118.067 21.198 118.405 20.827C118.761 20.4383 118.939 19.9348 118.939 19.3165C118.939 18.9278 118.868 18.601 118.725 18.336C118.583 18.0533 118.396 17.806 118.165 17.594C117.933 17.382 117.666 17.1965 117.364 17.0375C117.061 16.8608 116.759 16.6753 116.456 16.481C116.153 16.3043 115.86 16.1012 115.575 15.8715C115.29 15.6242 115.032 15.3503 114.801 15.05C114.587 14.732 114.409 14.3787 114.267 13.99C114.142 13.5837 114.08 13.1155 114.08 12.5855C114.08 11.4372 114.436 10.5097 115.148 9.803C115.878 9.09633 116.856 8.743 118.085 8.743C118.601 8.743 119.09 8.81367 119.553 8.955C120.016 9.07867 120.398 9.22 120.701 9.379L120.194 11.2075C119.873 11.0308 119.553 10.8983 119.233 10.81C118.912 10.7217 118.565 10.6775 118.191 10.6775C117.622 10.6775 117.168 10.8453 116.83 11.181C116.492 11.499 116.323 11.9672 116.323 12.5855C116.323 12.9388 116.385 13.248 116.509 13.513C116.634 13.7603 116.794 13.99 116.99 14.202C117.204 14.3963 117.435 14.5818 117.684 14.7585C117.951 14.9352 118.227 15.103 118.512 15.262C118.85 15.4563 119.179 15.6683 119.5 15.898C119.838 16.1277 120.131 16.4015 120.381 16.7195C120.648 17.0198 120.861 17.382 121.021 17.806C121.182 18.2123 121.262 18.707 121.262 19.29C121.262 20.509 120.897 21.4895 120.167 22.2315C119.455 22.9735 118.405 23.3445 117.017 23.3445C116.305 23.3445 115.664 23.2473 115.094 23.053C114.525 22.8587 114.098 22.682 113.813 22.523L114.293 20.6415C114.56 20.7828 114.916 20.9418 115.361 21.1185C115.824 21.2952 116.331 21.3835 116.883 21.3835Z" fill="#292929"/>
<path d="M125.609 16.7195C125.626 17.3908 125.689 18.0092 125.795 18.5745C125.902 19.1222 126.071 19.608 126.303 20.032C126.552 20.4383 126.872 20.7563 127.264 20.986C127.673 21.2157 128.189 21.3305 128.812 21.3305C129.328 21.3305 129.8 21.2598 130.227 21.1185C130.672 20.9595 130.993 20.827 131.188 20.721L131.616 22.5495C131.384 22.7085 130.993 22.8763 130.441 23.053C129.907 23.2473 129.266 23.3445 128.519 23.3445C127.54 23.3445 126.712 23.1678 126.036 22.8145C125.377 22.4612 124.834 21.9665 124.407 21.3305C123.998 20.6945 123.704 19.9348 123.526 19.0515C123.348 18.1682 123.259 17.1965 123.259 16.1365C123.259 13.5748 123.686 11.7022 124.541 10.5185C125.395 9.33483 126.525 8.743 127.931 8.743C129.515 8.743 130.637 9.33483 131.295 10.5185C131.954 11.7022 132.283 13.3628 132.283 15.5005C132.283 15.6948 132.283 15.898 132.283 16.11C132.283 16.3043 132.274 16.5075 132.256 16.7195H125.609ZM127.931 10.6775C127.166 10.6775 126.605 11.0573 126.249 11.817C125.911 12.5767 125.706 13.5925 125.635 14.8645H129.88C129.88 13.5748 129.747 12.559 129.48 11.817C129.213 11.0573 128.697 10.6775 127.931 10.6775Z" fill="#292929"/>
<path d="M49.8697 43.3886V46.2423C49.8233 46.5704 49.6335 46.7344 49.3003 46.7342C48.7491 46.7337 48.1957 46.7346 47.6402 46.7369C47.629 46.7369 47.6213 46.7422 47.6171 46.753C47.1029 48.1092 45.3187 48.2097 44.6908 46.9044C44.672 46.8651 44.6543 46.8015 44.6292 46.7523C44.6234 46.7411 44.6144 46.7355 44.6021 46.7355H40.6793C40.6743 46.7355 40.6694 46.7371 40.6652 46.74C40.661 46.7429 40.6578 46.7471 40.6559 46.7519C40.4003 47.4485 39.7949 47.8641 39.0697 47.8245C38.6067 47.7992 38.135 47.5709 37.846 47.1956C37.8439 47.1928 37.8411 47.1907 37.838 47.1892C37.8349 47.1877 37.8315 47.187 37.8281 47.1871C37.8246 47.1872 37.8213 47.1881 37.8183 47.1898C37.8154 47.1914 37.8128 47.1938 37.8109 47.1966C37.4964 47.6614 36.8987 47.9342 36.3631 47.8799C35.6981 47.8124 35.2426 47.4539 34.9966 46.8042C34.9926 46.7933 34.9849 46.7878 34.9736 46.7878C34.4326 46.7858 33.8932 46.7854 33.3555 46.7868C33.0197 46.7878 32.7885 46.6678 32.7427 46.2973V39.0683C32.814 38.6103 33.1174 38.584 33.5291 38.584C38.2475 38.5833 42.9661 38.5833 47.685 38.584C47.7534 38.584 47.845 38.5885 47.9596 38.5973C48.6393 38.6503 49.2117 39.1234 49.394 39.7841C49.417 39.8679 49.4515 40.0928 49.4977 40.4588C49.621 41.4352 49.745 42.4118 49.8697 43.3886ZM45.5578 41.8157C45.6742 41.8157 45.8117 41.8365 45.887 41.9094C46.5313 42.5335 47.2086 42.8903 48.1138 42.904C48.3025 42.9069 48.4891 42.9081 48.6738 42.9074C48.6761 42.9074 48.6783 42.9069 48.6804 42.906C48.6824 42.9051 48.6843 42.9037 48.6858 42.9019C48.6873 42.9002 48.6884 42.8981 48.6891 42.8959C48.6898 42.8937 48.6901 42.8913 48.6898 42.8889C48.5911 42.0237 48.491 41.1584 48.3898 40.293C48.3567 40.0093 48.2918 39.7875 48.0392 39.6781C47.9585 39.6432 47.8161 39.6258 47.6121 39.6258C43.0159 39.6263 38.4219 39.6264 33.8302 39.6261C33.8257 39.6261 33.8213 39.628 33.8181 39.6313C33.8149 39.6345 33.8131 39.639 33.8131 39.6436V41.7962C33.8131 41.801 33.815 41.8056 33.8183 41.809C33.8217 41.8124 33.8262 41.8143 33.8309 41.8143C37.7393 41.8125 41.6483 41.813 45.5578 41.8157ZM37.0301 46.1886C37.0301 46.042 36.9731 45.9013 36.8716 45.7976C36.7701 45.6939 36.6324 45.6356 36.4889 45.6356C36.3454 45.6356 36.2077 45.6939 36.1062 45.7976C36.0047 45.9013 35.9477 46.042 35.9477 46.1886C35.9477 46.3353 36.0047 46.476 36.1062 46.5797C36.2077 46.6834 36.3454 46.7417 36.4889 46.7417C36.6324 46.7417 36.7701 46.6834 36.8716 46.5797C36.9731 46.476 37.0301 46.3353 37.0301 46.1886ZM39.7062 46.1886C39.7062 46.042 39.6492 45.9013 39.5477 45.7976C39.4462 45.6939 39.3085 45.6356 39.165 45.6356C39.0214 45.6356 38.8838 45.6939 38.7823 45.7976C38.6808 45.9013 38.6237 46.042 38.6237 46.1886C38.6237 46.3353 38.6808 46.476 38.7823 46.5797C38.8838 46.6834 39.0214 46.7417 39.165 46.7417C39.3085 46.7417 39.4462 46.6834 39.5477 46.5797C39.6492 46.476 39.7062 46.3353 39.7062 46.1886ZM46.6641 46.1886C46.6641 46.042 46.607 45.9013 46.5055 45.7976C46.404 45.6939 46.2664 45.6356 46.1228 45.6356C45.9793 45.6356 45.8416 45.6939 45.7401 45.7976C45.6386 45.9013 45.5816 46.042 45.5816 46.1886C45.5816 46.3353 45.6386 46.476 45.7401 46.5797C45.8416 46.6834 45.9793 46.7417 46.1228 46.7417C46.2664 46.7417 46.404 46.6834 46.5055 46.5797C46.607 46.476 46.6641 46.3353 46.6641 46.1886Z" fill="white"/>
<path d="M125.43 44.6553V45.8021C125.361 46.3746 124.928 46.8428 124.305 46.8425C123.74 46.842 123.176 46.842 122.614 46.8425C122.608 46.8425 122.603 46.8441 122.599 46.847C122.595 46.85 122.592 46.8541 122.591 46.8589C122.342 47.6269 121.731 48.2292 120.918 48.4188C119.721 48.6984 118.491 48.0049 118.181 46.8582C118.18 46.8536 118.177 46.8495 118.173 46.8466C118.169 46.8437 118.164 46.8421 118.159 46.8421H113.492C113.477 46.8421 113.467 46.8491 113.462 46.863C113.095 47.9978 111.97 48.6892 110.744 48.4223C109.932 48.2459 109.271 47.6512 109.06 46.8616C109.057 46.8495 109.049 46.8434 109.036 46.8432C108.756 46.8391 108.427 46.8695 108.178 46.8083C107.669 46.6839 107.375 46.353 107.295 45.8157V43.4816C107.369 42.7324 107.755 42.24 108.453 42.0043C108.686 41.9254 108.941 41.9168 109.192 41.9199C109.201 41.92 109.211 41.9176 109.219 41.9128C109.227 41.908 109.233 41.9011 109.238 41.8929C109.488 41.4007 109.743 40.908 110.003 40.4146C110.147 40.1421 110.264 39.9447 110.355 39.8223C110.913 39.0687 111.767 38.64 112.748 38.6397C114.163 38.6388 115.577 38.6387 116.991 38.6394C117.866 38.6397 118.694 39.0557 119.255 39.7006C119.895 40.435 120.533 41.1707 121.17 41.9076C121.177 41.9165 121.187 41.9209 121.199 41.9209C121.663 41.9196 122.126 41.9196 122.587 41.9209C123.742 41.9237 124.708 42.5345 125.191 43.5359C125.192 43.5386 125.192 43.5416 125.192 43.5445C125.192 43.5474 125.191 43.5503 125.189 43.5527C125.188 43.5552 125.185 43.5573 125.183 43.5587C125.18 43.5601 125.177 43.5609 125.174 43.5609C124.564 43.5607 123.951 43.5608 123.333 43.5612C123.14 43.5612 123.01 43.5722 122.944 43.594C122.398 43.7731 122.518 44.6553 123.137 44.655C123.901 44.6543 124.665 44.6544 125.43 44.6553ZM112.241 39.7898C111.805 39.902 111.407 40.201 111.191 40.5944C110.95 41.0324 110.713 41.4673 110.479 41.8991C110.472 41.9132 110.476 41.9203 110.493 41.9203H112.61C112.614 41.9202 112.617 41.9193 112.62 41.9176C112.623 41.9158 112.625 41.9133 112.627 41.9104L113.741 39.7587C113.75 39.7419 113.745 39.7334 113.725 39.7334C113.256 39.7311 112.645 39.6863 112.241 39.7898ZM118.251 40.3025C117.929 39.9344 117.462 39.7348 116.964 39.7338C116.313 39.7326 115.665 39.7324 115.019 39.7331C115.014 39.7331 115.01 39.7343 115.006 39.7367C115.002 39.739 114.998 39.7424 114.996 39.7464L113.88 41.9001C113.879 41.9022 113.879 41.9046 113.879 41.907C113.879 41.9094 113.88 41.9117 113.881 41.9137C113.882 41.9157 113.884 41.9174 113.886 41.9185C113.889 41.9197 113.891 41.9203 113.894 41.9203H119.62C119.623 41.9202 119.626 41.9194 119.628 41.9179C119.63 41.9165 119.632 41.9144 119.633 41.912C119.635 41.9096 119.635 41.9069 119.635 41.9043C119.635 41.9016 119.633 41.8991 119.632 41.897C119.174 41.3631 118.713 40.8316 118.251 40.3025ZM112.392 46.2953C112.392 46.006 112.273 45.7286 112.061 45.524C111.849 45.3195 111.562 45.2046 111.262 45.2046C110.962 45.2046 110.675 45.3195 110.463 45.524C110.251 45.7286 110.132 46.006 110.132 46.2953C110.132 46.5845 110.251 46.8619 110.463 47.0665C110.675 47.271 110.962 47.3859 111.262 47.3859C111.562 47.3859 111.849 47.271 112.061 47.0665C112.273 46.8619 112.392 46.5845 112.392 46.2953ZM121.459 46.2953C121.459 46.006 121.34 45.7286 121.128 45.524C120.916 45.3195 120.629 45.2046 120.329 45.2046C120.029 45.2046 119.742 45.3195 119.53 45.524C119.318 45.7286 119.199 46.006 119.199 46.2953C119.199 46.5845 119.318 46.8619 119.53 47.0665C119.742 47.271 120.029 47.3859 120.329 47.3859C120.629 47.3859 120.916 47.271 121.128 47.0665C121.34 46.8619 121.459 46.5845 121.459 46.2953Z" fill="white"/>
<path d="M91.41 35.8815C91.975 36.0455 92.4068 36.5548 92.4652 37.129L92.4847 37.3341H87.7023V37.2042C87.7023 36.7701 88.0432 36.2198 88.4458 36.0045C88.7412 35.8439 88.8776 35.8302 90.1049 35.8336C90.9393 35.837 91.2997 35.8473 91.41 35.8815Z" fill="white"/>
<path d="M93.7866 37.7938C94.2444 37.8451 94.6795 38.0262 95.0431 38.3134C95.2996 38.5116 97.7087 40.8905 97.9327 41.1571C98.2444 41.5365 98.384 41.9296 98.384 42.4388C98.384 42.7806 98.3223 43.0609 98.1892 43.3344C98.0658 43.5839 96.0464 46.619 95.897 46.7797L95.7866 46.8993L85.0854 46.9164L84.9393 46.8138C84.7121 46.6532 83.9978 46.0209 83.9231 45.9149C83.8549 45.8192 83.8549 45.809 83.8549 42.5995V39.3798L83.9263 39.1405C84.1082 38.5287 84.5724 38.057 85.2023 37.8383C85.3711 37.7767 85.6049 37.7733 89.4555 37.7699C91.6958 37.7665 93.6438 37.7767 93.7866 37.7938ZM86.514 40.7845C86.4653 40.8221 86.3939 40.8973 86.3581 40.9486C86.2932 41.0375 86.29 41.0887 86.29 41.851C86.29 42.7499 86.2997 42.8011 86.514 42.9379C86.6081 42.9994 86.7185 43.0028 88.4101 43.0131C89.5854 43.0199 90.2477 43.0096 90.3289 42.9857C90.4036 42.9652 90.4977 42.9037 90.5562 42.8319L90.6568 42.7089V41.0033L90.5497 40.8802C90.4912 40.8119 90.3971 40.7469 90.3321 40.7299C90.2704 40.7128 89.4036 40.7025 88.4101 40.7059C86.6406 40.7128 86.6016 40.7128 86.514 40.7845ZM92.5074 41.5673C92.4457 41.6083 92.3678 41.6903 92.3289 41.7552C92.2672 41.8715 92.2639 41.9261 92.2639 43.8744V45.8739L93.4392 45.8842L94.6178 45.891V43.8744C94.6178 41.7484 94.6178 41.745 94.4749 41.6219C94.3353 41.4989 94.1925 41.4818 93.4003 41.4921C92.6828 41.4989 92.6113 41.5057 92.5074 41.5673Z" fill="white"/>
<path d="M99.5298 45.956C99.7798 46.0927 99.8609 46.4653 99.6954 46.7079C99.5492 46.9233 99.5882 46.9164 97.9097 46.9096L96.3869 46.8993L96.7181 46.3969L97.046 45.8945L98.2311 45.891C99.3252 45.891 99.4259 45.8945 99.5298 45.956Z" fill="white"/>
<path d="M90.6568 47.3649C90.6568 47.4162 90.4425 47.7887 90.3354 47.9323C90.1698 48.1442 89.9555 48.3219 89.699 48.4484C88.7575 48.9201 87.6471 48.4826 87.2055 47.4675L87.1503 47.341H87.7347C88.0919 47.341 88.3224 47.3547 88.3354 47.3752C88.3679 47.4333 88.5951 47.5427 88.751 47.5802C88.9523 47.6281 89.2088 47.57 89.3841 47.4435L89.5237 47.341H90.0886C90.4003 47.341 90.6568 47.3512 90.6568 47.3649Z" fill="white"/>
<path d="M8.81672 37.2202C8.59919 37.3398 8.56348 37.4663 8.56348 38.1226V38.6865H9.66737C10.7128 38.6865 10.781 38.6899 10.9011 38.7549C10.9855 38.7993 11.0537 38.8711 11.0959 38.96C11.1576 39.0898 11.1609 39.1582 11.1609 40.7373C11.1609 42.3164 11.1576 42.3848 11.0959 42.5146C11.0537 42.6035 10.9855 42.6753 10.9011 42.7197C10.781 42.7847 10.7128 42.7881 9.66737 42.7881H8.56348V45.8643L23.9692 45.8472L24.1542 45.772C24.6542 45.5737 25.0406 45.1055 25.151 44.5723C25.2581 44.0356 25.1185 43.5469 24.7127 43.0513L24.4919 42.7881H17.0634L16.9335 42.7129C16.8556 42.665 16.7777 42.583 16.742 42.5078C16.6835 42.3882 16.6803 42.2822 16.6803 40.7373C16.6803 39.189 16.6835 39.0864 16.742 38.9668C16.7777 38.8984 16.8524 38.8096 16.9141 38.772C17.0179 38.707 17.0959 38.7036 19.0179 38.6865L21.0147 38.6694L20.7322 38.3413C20.5764 38.1602 20.3426 37.9277 20.2127 37.8218C19.9303 37.5962 19.4562 37.3501 19.0991 37.2441L18.8394 37.1655L13.8881 37.1587C9.00503 37.1519 8.93361 37.1519 8.81672 37.2202ZM15.4465 38.7549C15.5309 38.7993 15.5991 38.8711 15.6413 38.96C15.703 39.0898 15.7063 39.1582 15.7063 40.7373C15.7063 42.3164 15.703 42.3848 15.6413 42.5146C15.5991 42.6035 15.5309 42.6753 15.4465 42.7197C15.3264 42.7847 15.2582 42.7881 13.9173 42.7881C12.5277 42.7881 12.5147 42.7881 12.3881 42.7129C12.3102 42.665 12.2323 42.583 12.1966 42.5078C12.1381 42.3882 12.1349 42.2856 12.1349 40.7305C12.1381 38.8745 12.1316 38.9258 12.3816 38.7686L12.5082 38.6865H13.9141C15.2582 38.6865 15.3264 38.6899 15.4465 38.7549Z" fill="white"/>
<path d="M13.1089 41.7627H14.7323V39.7119H13.1089V41.7627Z" fill="white"/>
<path d="M8.56348 41.7627H10.1868V39.7119H8.56348V41.7627Z" fill="white"/>
<path d="M17.6543 41.7627H20.6283C23.5601 41.7627 23.6023 41.7627 23.5601 41.6978C23.5341 41.6602 23.151 41.1987 22.703 40.6724L21.8913 39.7119H17.6543V41.7627Z" fill="white"/>
<path d="M8.56348 47.4536C8.56348 48.1167 8.59919 48.2397 8.82322 48.3594C8.94984 48.4277 8.99529 48.4277 16.8751 48.4277C24.7549 48.4277 24.8003 48.4277 24.927 48.3594C25.1283 48.25 25.1867 48.0962 25.1867 47.6587C25.1867 47.2212 25.1283 47.0674 24.927 46.958C24.8003 46.8896 24.7549 46.8896 16.6803 46.8896H8.56348V47.4536Z" fill="white"/>
<path d="M70.0559 38.4708L70.413 39.486L70.6825 39.5099C71.2182 39.5577 71.5851 39.7286 71.939 40.1012C72.2052 40.378 72.3188 40.5934 72.5039 41.1505L72.6338 41.5538L72.1727 41.5572C71.7539 41.5572 71.215 41.6119 71.1987 41.6564C71.1955 41.6666 71.2637 41.8819 71.3513 42.1349L71.5104 42.5963L71.952 42.5997C72.3351 42.5997 72.4325 42.6134 72.6857 42.6954C73.5234 42.962 74.1922 43.6661 74.4422 44.5445C74.5721 44.9923 74.5721 45.6349 74.4422 46.0826C74.1922 46.961 73.5201 47.6686 72.6857 47.9317C72.4292 48.0138 72.3383 48.0275 71.9552 48.0275C71.5721 48.0275 71.4812 48.0138 71.2247 47.9317C70.3903 47.6686 69.7182 46.961 69.4682 46.0826C69.3903 45.816 69.3773 45.7169 69.3773 45.3307C69.3773 44.8453 69.4163 44.63 69.5819 44.2198C69.7539 43.7994 70.0721 43.3824 70.452 43.0885C70.5299 43.0304 70.5916 42.9689 70.5916 42.9552C70.5916 42.9176 70.3059 42.1075 70.2734 42.046C70.2377 41.9811 69.7409 42.3468 69.4585 42.6476C68.7345 43.4064 68.3838 44.3258 68.3838 45.4537V45.8263H63.0592V45.9015C63.0559 46.045 62.8482 46.5611 62.6956 46.8004C62.1793 47.6207 61.2995 48.0924 60.3969 48.0377C59.2962 47.9693 58.3579 47.1935 58.0398 46.0826C57.9618 45.8126 57.9488 45.7169 57.9488 45.3136C57.9488 44.9103 57.9618 44.8146 58.0398 44.5445C58.3579 43.4337 59.2962 42.6578 60.3969 42.5895C61.2995 42.5348 62.1793 43.0065 62.6956 43.8268C62.8482 44.066 63.0559 44.5821 63.0592 44.7223C63.0592 44.8009 63.0624 44.8009 63.5624 44.8009H64.0689L64.0462 44.671C63.754 42.9586 62.3611 41.6598 60.7215 41.5641C60.1209 41.5299 59.5105 41.6598 58.9586 41.94C58.767 42.0392 58.6631 42.0768 58.6469 42.0528C58.6307 42.0323 58.5365 41.8717 58.4359 41.6974C58.3352 41.5231 58.2313 41.3453 58.2053 41.3009C58.1566 41.2257 58.1599 41.2223 58.4424 41.0685C58.7833 40.8771 59.1859 40.7267 59.6112 40.6241C59.9164 40.5524 59.9975 40.5489 62.2962 40.5387L64.6663 40.525L64.7767 40.3028C64.9585 39.9337 65.3449 39.6329 65.7475 39.5406C65.8611 39.5167 66.491 39.503 67.6501 39.503H69.3838L69.1987 38.9903L69.0169 38.4776H67.4098V37.4523H69.6987L70.0559 38.4708ZM71.8903 43.6319C71.8903 43.649 72.0299 44.0524 72.1987 44.5275C72.3675 45.006 72.4974 45.4025 72.4909 45.4093C72.452 45.4537 71.6143 45.7545 71.5948 45.734C71.5818 45.7169 71.439 45.3204 71.2734 44.8522C71.1078 44.3805 70.965 43.9908 70.9585 43.9806C70.9487 43.9703 70.8676 44.0489 70.7766 44.1515C70.4033 44.5753 70.2507 45.1734 70.3806 45.6998C70.5364 46.3321 70.9877 46.8072 71.5883 46.9713C72.4195 47.2003 73.3026 46.6192 73.5299 45.6998C73.7442 44.8316 73.202 43.902 72.3351 43.6559C72.1468 43.6046 71.8903 43.5909 71.8903 43.6319ZM60.1599 43.6559C59.5592 43.8199 59.1079 44.295 58.9521 44.9274C58.7346 45.8024 59.2865 46.732 60.1599 46.9713C60.6793 47.1149 61.2605 46.9337 61.6631 46.5099C61.8482 46.315 62.0527 45.9733 62.0527 45.8639C62.0527 45.8365 61.7345 45.8263 61.0462 45.8263H60.0397V44.8009H61.0462C61.7345 44.8009 62.0527 44.7906 62.0527 44.7633C62.0527 44.6539 61.8482 44.3121 61.6631 44.1173C61.2605 43.6935 60.6793 43.5123 60.1599 43.6559Z" fill="white"/>
<path d="M141.091 55.9881C140.617 55.4665 140.309 55.016 140.166 54.6366C140.024 54.3047 140 53.8779 140.095 53.3563C140.237 52.882 140.427 52.1944 140.664 51.2935C141.044 49.776 141.447 48.5193 141.874 47.5235C142.349 46.4802 142.8 45.4133 143.227 44.3226C143.701 43.1845 144.104 41.7382 144.437 39.9836C145.196 38.229 145.86 36.5693 146.429 35.0044C147.046 33.4395 147.521 32.1592 147.853 31.1633C148.185 30.1675 148.351 29.6696 148.351 29.6696C148.398 29.4799 148.612 28.982 148.992 28.1758C149.371 27.3697 149.846 26.3976 150.415 25.2595C151.032 24.0739 151.601 22.8884 152.123 21.7029C152.93 19.4267 153.57 17.4825 154.045 15.8701C154.567 14.2104 155.089 12.7167 155.611 11.3889C156.133 10.0611 156.821 8.75703 157.675 7.47667C158.244 6.48084 158.908 5.84066 159.667 5.55613C160.427 5.27161 161.138 5.29532 161.803 5.62726C162.514 5.91179 163.013 6.52826 163.297 7.47667C163.534 7.95088 163.724 8.51993 163.867 9.18382C164.056 9.84771 164.222 10.8198 164.365 12.1002C164.507 13.3331 164.602 15.0877 164.65 17.3639C164.744 20.0669 164.768 22.7462 164.721 25.4017C164.673 28.0099 164.673 30.4283 164.721 32.6571C164.816 34.8859 165.077 36.7827 165.504 38.3476C165.646 39.2012 165.836 40.2444 166.073 41.4774C166.358 42.6629 166.642 43.8484 166.927 45.0339C167.259 46.2194 167.568 47.2153 167.852 48.0214C168.184 48.8276 168.445 49.2306 168.635 49.2306C168.872 49.2306 169.181 48.9224 169.56 48.3059C169.987 47.6895 170.509 46.5751 171.126 44.9628C171.79 43.3505 172.573 41.0743 173.475 38.1342C174.376 35.1467 175.397 31.3293 176.535 26.6821C176.773 25.8759 177.081 24.5719 177.461 22.7699C177.888 20.9679 178.196 19.1422 178.386 17.2928C178.718 16.1073 179.05 14.8032 179.382 13.3806C179.714 11.9579 179.999 10.7013 180.236 9.61061C180.521 8.51993 180.663 7.90346 180.663 7.76119C180.663 7.42925 180.663 7.14473 180.663 6.90762C180.711 6.67052 180.711 6.43342 180.663 6.19631C180.901 6.19631 181.114 5.88808 181.304 5.27161C181.494 4.60772 181.589 4.03867 181.589 3.56446C181.589 2.75831 181.683 2.11813 181.873 1.64392C182.111 1.12229 182.348 0.742923 182.585 0.505819C182.727 0.126455 183.083 -0.0395168 183.653 0.00790331C184.222 0.00790331 184.791 0.150165 185.361 0.434689C185.93 0.719213 186.286 1.09858 186.428 1.57279C186.523 2.09442 186.381 3.27993 186.001 5.12934C185.669 6.93133 185.147 9.3735 184.435 12.4559C184.435 12.9775 184.293 13.8311 184.008 15.0166C183.724 16.2021 183.415 17.4587 183.083 18.7865C182.799 20.1143 182.585 21.2524 182.443 22.2008C182.253 23.4338 182.039 24.5956 181.802 25.6862C181.565 26.7295 181.328 27.2274 181.09 27.18C179.857 32.5385 178.552 37.1146 177.176 40.9083C175.847 44.6545 174.661 47.7132 173.617 50.0842C172.479 52.6924 171.221 54.2572 169.845 54.7789C168.517 55.3479 167.093 54.6603 165.575 52.7161C164.673 51.4831 163.962 50.2739 163.44 49.0884C162.918 47.8554 162.491 46.4328 162.158 44.8205C161.826 43.1608 161.423 41.1217 160.949 38.7032C160.237 36.759 159.834 34.791 159.739 32.7994C159.691 30.8077 159.762 28.7686 159.952 26.6821C160.142 24.5481 160.284 22.3431 160.379 20.0669C160.332 17.7907 160.237 16.2732 160.094 15.5145C159.952 14.7558 159.667 14.8032 159.24 15.6568C158.861 16.4629 158.22 18.1226 157.319 20.6359C156.987 21.5369 156.536 22.6276 155.966 23.908C155.445 25.1883 154.923 26.4687 154.401 27.749C153.879 28.982 153.428 30.0727 153.048 31.0211C152.669 31.9221 152.432 32.4911 152.337 32.7282C152.052 33.2973 151.72 34.056 151.34 35.0044C150.961 35.9054 150.652 36.8775 150.415 37.9208C148.707 42.3783 147.426 45.9349 146.572 48.5905C145.765 51.246 145.172 53.0954 144.792 54.1387C144.318 55.4665 143.82 56.3438 143.298 56.7705C142.776 57.2448 142.04 56.9839 141.091 55.9881Z" fill="url(#paint1_linear_312_718)"/>
<path d="M191.1 53.2851C189.629 53.1903 188.324 52.7398 187.185 51.9336C186.094 51.1275 184.931 50.2976 183.698 49.444C182.891 48.6379 182.25 47.7843 181.776 46.8833C181.301 45.9349 180.922 44.702 180.637 43.1845C180.447 42.2835 180.447 41.1454 180.637 39.7702C180.827 38.395 181.135 37.0198 181.562 35.6446C181.99 34.222 182.393 33.0839 182.772 32.2303C183.342 30.9025 184.053 29.4799 184.908 27.9624C185.809 26.3976 186.687 24.9275 187.541 23.5523C188.442 22.1297 189.154 20.9916 189.676 20.138C190.008 19.8061 190.151 19.6401 190.103 19.6401C190.103 19.5927 190.103 19.569 190.103 19.569C190.103 19.3319 190.34 18.7391 190.815 17.7907C191.337 16.7948 191.788 15.9176 192.167 15.1588C192.879 14.4001 193.282 13.7836 193.377 13.3094C193.472 12.8352 193.401 12.4559 193.164 12.1713C193.069 11.9816 193.235 11.6497 193.662 11.1755C194.089 10.7013 194.729 10.1559 195.583 9.53947C196.438 8.923 197.41 8.30653 198.502 7.69006C199.64 6.78907 200.732 6.31486 201.775 6.26744C202.867 6.1726 203.507 6.38599 203.697 6.90762C203.697 7.04989 203.958 7.09731 204.48 7.04988C205.049 6.95504 205.69 6.83649 206.402 6.69423C207.161 6.50454 207.825 6.36228 208.394 6.26744C208.632 5.98292 209.177 5.76953 210.031 5.62726C210.933 5.43758 211.977 5.27161 213.163 5.12934C213.78 5.17677 214.373 5.20048 214.942 5.20048C215.559 5.15305 216.057 5.10563 216.437 5.05821C216.864 5.01079 217.078 4.98708 217.078 4.98708C217.41 4.89224 217.789 4.93966 218.216 5.12934C218.691 5.31903 219.118 5.84065 219.497 6.69423C219.83 7.5478 219.711 8.18798 219.142 8.61477C218.62 9.04156 217.386 9.3735 215.441 9.61061C214.017 9.80029 212.783 9.96626 211.74 10.1085C210.696 10.2034 209.604 10.3456 208.466 10.5353C207.327 10.6776 205.927 10.9384 204.266 11.3178C203.08 11.5549 202.108 11.8394 201.348 12.1713C200.589 12.4559 199.925 12.9063 199.356 13.5228C198.786 14.0919 198.146 14.9217 197.434 16.0124C197.102 16.2495 196.675 16.866 196.153 17.8618C195.631 18.8577 195.109 19.8535 194.587 20.8493C193.258 22.6987 192.096 24.311 191.1 25.6862C190.151 27.014 189.771 27.7965 189.961 28.0336C189.961 28.0336 190.222 28.1047 190.744 28.247C191.266 28.3892 191.622 28.4604 191.811 28.4604C192.286 28.2233 192.855 28.0573 193.519 27.9624C194.231 27.8676 194.801 27.7728 195.228 27.6779C198.169 26.9192 200.471 26.3264 202.131 25.8996C203.839 25.4728 205.121 25.1646 205.975 24.9749C206.876 24.7378 207.564 24.5956 208.039 24.5481C208.703 24.0265 209.343 23.9317 209.96 24.2636C210.625 24.5956 211.146 25.1172 211.526 25.8285C211.763 26.3501 211.763 26.8006 211.526 27.18C211.336 27.5594 210.743 27.9387 209.747 28.3181C208.798 28.6975 207.374 29.148 205.476 29.6696C203.578 30.1912 201.087 30.8788 198.003 31.7324C195.394 32.4911 193.164 32.9416 191.313 33.0839C189.463 33.2261 188.585 32.8231 188.68 31.8747C188.348 31.685 187.968 31.9221 187.541 32.586C187.161 33.2024 186.782 34.056 186.402 35.1467C186.023 36.2374 185.69 37.3992 185.406 38.6321C185.169 39.865 185.002 41.0269 184.908 42.1175C184.86 43.1608 184.931 43.9432 185.121 44.4649C185.501 45.5555 185.999 46.4328 186.616 47.0967C187.233 47.7132 188.348 48.2585 189.961 48.7327C190.91 48.7802 191.835 48.8513 192.737 48.9461C193.638 49.041 194.658 48.8513 195.797 48.3771C198.596 47.9029 200.803 47.4049 202.416 46.8833C204.029 46.3617 204.954 46.006 205.192 45.8163C205.571 45.6267 205.809 45.5318 205.903 45.5318C206.046 45.4844 206.236 45.4607 206.473 45.4607C206.33 45.6978 206.378 45.7215 206.615 45.5318C206.9 45.2947 207.279 44.9391 207.754 44.4649C208.276 43.9907 208.964 43.5402 209.818 43.1134C210.672 42.6866 211.431 42.3546 212.095 42.1175C212.807 41.8804 213.187 41.8804 213.234 42.1175C213.519 42.5917 213.471 43.2556 213.092 44.1092C212.712 44.9154 212.024 45.8164 211.028 46.8122C210.031 47.7606 208.75 48.6853 207.185 49.5863C204.67 50.9141 201.942 51.8388 199 52.3604C196.058 52.9295 193.425 53.2377 191.1 53.2851Z" fill="url(#paint2_linear_312_718)"/>
<path d="M236.539 55.5613C235.306 55.5613 234.309 54.85 233.55 53.4274C232.839 52.0048 232.483 50.4873 232.483 48.875C232.483 48.4956 232.53 47.9029 232.625 47.0967C232.767 46.2906 232.886 45.5555 232.981 44.8916C233.123 44.1803 233.194 43.8247 233.194 43.8247C233.005 44.2989 232.578 45.1762 231.913 46.4565C231.249 47.6895 230.537 48.7802 229.778 49.7286C228.924 50.6296 228.022 51.5306 227.074 52.4315C226.172 53.3325 225.342 54.0439 224.583 54.5655C223.396 55.2294 222.661 55.585 222.376 55.6325C222.091 55.6799 221.664 55.4665 221.095 54.9923C220.336 54.7552 219.695 54.3995 219.173 53.9253C218.699 53.4511 218.367 52.8346 218.177 52.0759C217.797 51.1275 217.513 49.7997 217.323 48.0926C217.133 46.338 217.062 44.4886 217.109 42.5443C217.157 40.5526 217.37 38.7032 217.75 36.9961C217.987 36.2848 218.13 35.5023 218.177 34.6488C218.224 33.7952 218.343 33.1313 218.533 32.6571C218.485 32.2777 218.628 31.4242 218.96 30.0964C219.339 28.7686 219.861 27.1563 220.526 25.2595C221.19 23.3626 221.925 21.371 222.732 19.2844C223.539 17.1979 224.345 15.2063 225.152 13.3094C226.006 11.4126 226.789 9.77658 227.501 8.40137C228.26 7.02617 228.877 6.14889 229.351 5.76952C229.636 5.43758 229.968 5.27161 230.347 5.27161C230.727 5.22419 231.059 5.29532 231.344 5.485C231.629 5.62726 231.771 5.86437 231.771 6.19631C231.961 6.52826 232.079 6.81278 232.127 7.04988C232.174 7.23957 232.293 7.47667 232.483 7.76119C232.625 8.2354 232.625 8.63848 232.483 8.97042C232.34 9.30237 232.056 9.84771 231.629 10.6064C231.202 11.3652 230.608 12.5981 229.849 14.3053C228.521 16.6763 227.311 19.3793 226.219 22.4142C225.128 25.4017 224.179 28.5078 223.373 31.7324C222.566 34.9096 221.973 37.9445 221.593 40.8372C221.214 43.7298 221.071 46.2431 221.166 48.3771C221.166 48.9935 221.38 49.444 221.807 49.7286C222.234 49.9657 222.803 49.942 223.515 49.6574C224.274 49.3255 225.104 48.6379 226.006 47.5946C226.386 47.1204 226.836 46.504 227.358 45.7452C227.88 44.9391 228.331 44.2278 228.71 43.6113C229.138 42.9474 229.351 42.6155 229.351 42.6155C229.351 42.6155 229.493 42.3072 229.778 41.6907C230.11 41.0743 230.49 40.2918 230.917 39.3434C231.391 38.6321 232.008 37.494 232.767 35.9291C233.526 34.3642 234.309 32.6571 235.116 30.8077C235.923 28.9583 236.634 27.2274 237.251 25.6151C237.868 23.9554 238.271 22.6987 238.461 21.8452C238.651 21.1813 238.864 20.6359 239.102 20.2091C239.386 19.7349 239.695 19.4978 240.027 19.4978C240.834 19.071 241.379 18.9762 241.664 19.2133C241.996 19.403 242.328 19.972 242.66 20.9205L243.514 22.841L241.949 27.1089C239.624 33.7952 238.105 40.2444 237.394 46.4565C237.394 46.4565 237.346 46.6936 237.251 47.1678C237.204 47.6421 237.251 48.1163 237.394 48.5905C237.583 49.0647 238.034 49.2781 238.746 49.2306C239.505 48.7564 240.264 48.1637 241.023 47.4524C241.783 46.6936 242.637 45.7452 243.586 44.6071C244.535 43.4216 245.673 41.9516 247.002 40.197C247.619 39.4857 248.164 38.7744 248.639 38.0631C249.161 37.3043 249.422 36.925 249.422 36.925C249.422 36.925 249.54 36.6404 249.778 36.0714C250.062 35.5023 250.299 35.0044 250.489 34.5776C250.916 33.7715 251.272 33.2024 251.557 32.8705C251.889 32.4911 252.055 32.3014 252.055 32.3014C252.435 31.9695 252.909 31.2345 253.479 30.0964C254.048 28.9583 254.665 27.6068 255.329 26.0419C256.041 24.477 256.705 22.8884 257.322 21.2761C257.939 19.6164 258.461 18.0989 258.888 16.7237C259.315 15.3485 259.552 14.329 259.599 13.6651C259.742 13.3331 259.837 12.6692 259.884 11.6734C259.932 10.6776 260.026 9.65803 260.169 8.61477C260.359 7.52409 260.643 6.71794 261.023 6.19631C261.45 6.19631 261.853 6.52826 262.233 7.19215C262.612 7.80862 262.897 8.59106 263.087 9.53947C263.324 10.4879 263.443 11.4363 263.443 12.3847C263.443 13.8073 263.277 15.3485 262.944 17.0082C262.612 18.668 262.256 19.972 261.877 20.9205C261.687 21.3947 261.474 21.8926 261.236 22.4142C260.999 22.9358 260.762 23.5286 260.525 24.1925C260.192 24.1925 259.884 24.5007 259.599 25.1172C259.362 25.6862 259.149 26.1604 258.959 26.5398C258.959 26.8243 258.793 27.4882 258.461 28.5315C258.128 29.5273 257.773 30.3809 257.393 31.0922C257.108 31.5664 256.658 32.3251 256.041 33.3684C255.471 34.3642 254.831 35.4312 254.119 36.5693C253.407 37.7074 252.767 38.7507 252.197 39.6991C251.675 40.6475 251.296 41.3114 251.059 41.6907C250.679 42.165 250.299 42.6392 249.92 43.1134C249.588 43.5876 249.327 44.0855 249.137 44.6071C248.568 45.5555 247.856 46.504 247.002 47.4524C246.195 48.4008 245.317 49.3255 244.368 50.2265C243.467 51.0801 242.589 51.8388 241.735 52.5027C240.928 53.1666 240.24 53.6882 239.671 54.0676C239.054 54.5418 238.414 54.8974 237.749 55.1345C237.133 55.4191 236.729 55.5613 236.539 55.5613Z" fill="url(#paint3_linear_312_718)"/>
<path d="M275.139 53.0717C273.194 53.5459 271.177 53.5222 269.09 53.0006C267.049 52.479 265.246 51.5543 263.681 50.2265C262.115 48.8987 261.023 47.2864 260.407 45.3896C260.217 44.8679 260.051 44.3937 259.908 43.9669C259.813 43.5402 259.861 43.3268 260.051 43.3268C260.525 43.3268 260.549 43.0897 260.122 42.6155C259.98 42.4258 259.908 42.1175 259.908 41.6908C259.956 41.264 260.051 40.8609 260.193 40.4815C260.383 40.1022 260.596 39.9125 260.834 39.9125C261.166 39.9125 261.522 40.031 261.901 40.2681C262.281 40.5052 262.565 40.766 262.755 41.0506C262.992 41.2877 263.016 41.4774 262.826 41.6196C262.826 41.6196 262.921 41.8804 263.111 42.4021C263.301 42.8763 263.348 43.4453 263.253 44.1092C263.681 44.8205 264.036 45.4133 264.321 45.8875C264.606 46.3143 265.199 46.7885 266.1 47.3101C266.717 47.7843 267.263 48.14 267.737 48.3771C268.212 48.6142 269.042 48.7564 270.228 48.8039C270.988 48.8039 271.604 48.709 272.079 48.5193C272.553 48.3297 272.98 47.9977 273.36 47.5235C273.787 47.0493 274.285 46.4091 274.855 45.603C274.997 44.702 274.807 43.2556 274.285 41.264C273.811 39.2723 273.099 36.9487 272.15 34.2931C271.201 31.5901 270.062 28.7686 268.734 25.8285C268.449 25.3069 268.188 24.7615 267.951 24.1925C267.761 23.6234 267.666 23.3389 267.666 23.3389C267.809 22.4379 267.761 21.6081 267.524 20.8493C267.239 20.6122 267.073 20.0669 267.026 19.2133C267.026 18.3123 266.978 17.5062 266.883 16.7949C266.978 15.7516 267.073 14.9454 267.168 14.3764C267.263 13.8073 267.571 13.1435 268.093 12.3847C269.469 10.393 271.154 8.73332 273.146 7.40554C275.139 6.03034 277.678 5.10563 280.762 4.63143C281.284 4.53658 281.948 4.48916 282.755 4.48916C283.561 4.44174 284.392 4.46545 285.246 4.5603C286.1 4.60772 286.859 4.70256 287.523 4.84482C288.235 4.93966 288.757 5.10563 289.089 5.34274C290.228 5.91179 291.129 6.52826 291.794 7.19215C292.458 7.85604 293.027 8.61477 293.502 9.46835C293.739 9.98997 293.881 10.393 293.929 10.6776C294.024 10.9147 294.024 11.1518 293.929 11.3889C293.834 11.626 293.644 11.9816 293.359 12.4559C293.122 12.7404 292.719 13.0723 292.15 13.4517C291.628 13.8311 291.011 14.2104 290.299 14.5898C289.635 14.9692 288.923 15.3248 288.164 15.6568C287.452 15.9413 286.788 16.131 286.171 16.2258C285.744 16.4155 285.483 16.5103 285.388 16.5103C285.341 16.5103 285.317 16.4155 285.317 16.2258C285.459 15.9413 285.483 15.7279 285.388 15.5856C285.341 15.4434 285.317 15.3722 285.317 15.3722C284.7 15.3722 284.558 15.1114 284.89 14.5898C285.27 14.0682 285.91 13.262 286.812 12.1713C287.666 11.2229 288.211 10.5827 288.449 10.2508C288.733 9.87142 288.757 9.56318 288.52 9.32608C288.235 9.1364 287.666 8.99414 286.812 8.8993C285.958 8.80445 285.032 8.78074 284.036 8.82817C283.087 8.82817 282.233 8.89929 281.474 9.04156C279.101 9.75287 277.013 10.7724 275.21 12.1002C273.455 13.428 272.387 14.898 272.008 16.5103C271.676 17.2216 271.509 17.8618 271.509 18.4309C271.557 18.9999 271.77 19.9009 272.15 21.1339C272.245 22.3194 272.34 23.2441 272.435 23.908C272.577 24.5719 272.648 24.9512 272.648 25.0461C272.648 25.2357 272.696 25.5203 272.791 25.8996C272.885 26.2316 272.957 26.8481 273.004 27.749C273.099 28.081 273.336 28.5315 273.716 29.1005C274.095 29.6222 274.736 30.2149 275.637 30.8788C275.732 31.9221 275.898 32.8231 276.136 33.5818C276.42 34.2931 276.586 34.9807 276.634 35.6446C277.583 37.5414 278.295 39.4383 278.769 41.3351C279.291 43.2319 279.599 44.7968 279.694 46.0297C279.789 47.2627 279.671 47.8792 279.338 47.8792C279.291 47.8792 279.267 47.9503 279.267 48.0926C279.267 48.2348 279.291 48.3059 279.338 48.3059C279.338 48.5905 279.172 48.9461 278.84 49.3729C278.508 49.7997 278.105 50.2739 277.63 50.7955C277.156 51.2697 276.681 51.6965 276.207 52.0759C275.78 52.5027 275.424 52.8346 275.139 53.0717Z" fill="url(#paint4_linear_312_718)"/>
<defs>
<linearGradient id="paint0_linear_312_718" x1="284.09" y1="2.75808" x2="1.42977" y2="39.4995" gradientUnits="userSpaceOnUse">
<stop stop-color="#205CAC"/>
<stop offset="1" stop-color="#00A394"/>
</linearGradient>
<linearGradient id="paint1_linear_312_718" x1="296.286" y1="2.75809" x2="139.002" y2="14.0025" gradientUnits="userSpaceOnUse">
<stop stop-color="#00A394"/>
<stop offset="1" stop-color="#205CAC"/>
</linearGradient>
<linearGradient id="paint2_linear_312_718" x1="296.286" y1="2.75809" x2="139.002" y2="14.0025" gradientUnits="userSpaceOnUse">
<stop stop-color="#00A394"/>
<stop offset="1" stop-color="#205CAC"/>
</linearGradient>
<linearGradient id="paint3_linear_312_718" x1="296.286" y1="2.75809" x2="139.002" y2="14.0025" gradientUnits="userSpaceOnUse">
<stop stop-color="#00A394"/>
<stop offset="1" stop-color="#205CAC"/>
</linearGradient>
<linearGradient id="paint4_linear_312_718" x1="296.286" y1="2.75809" x2="139.002" y2="14.0025" gradientUnits="userSpaceOnUse">
<stop stop-color="#00A394"/>
<stop offset="1" stop-color="#205CAC"/>
</linearGradient>
</defs>
</svg>
